<mxfile host="Electron" modified="2023-08-14T18:23:32.165Z" agent="Mozilla/5.0 (X11; Linux x86_64) AppleWebKit/537.36 (KHTML, like Gecko) draw.io/21.6.8 Chrome/114.0.5735.289 Electron/25.5.0 Safari/537.36" etag="QVstDrseH5CmWKzuX1b3" version="21.6.8" type="device">
  <diagram name="Page-1" id="1sty8YQsVcN0rSa5dZGq">
    <mxGraphModel dx="1364" dy="-257" grid="1" gridSize="10" guides="1" tooltips="1" connect="1" arrows="1" fold="1" page="1" pageScale="1" pageWidth="850" pageHeight="1100" math="0" shadow="0">
      <root>
        <mxCell id="0" />
        <mxCell id="1" parent="0" />
        <mxCell id="nk4efx7LylnVrbTF47Z--70" style="edgeStyle=none;rounded=0;orthogonalLoop=1;jettySize=auto;html=1;exitX=0;exitY=1;exitDx=0;exitDy=0;entryX=1;entryY=0;entryDx=0;entryDy=0;fontColor=#1A1A1A;elbow=vertical;" edge="1" parent="1" source="nk4efx7LylnVrbTF47Z--72" target="nk4efx7LylnVrbTF47Z--75">
          <mxGeometry relative="1" as="geometry" />
        </mxCell>
        <mxCell id="nk4efx7LylnVrbTF47Z--71" style="edgeStyle=none;rounded=0;orthogonalLoop=1;jettySize=auto;html=1;exitX=1;exitY=1;exitDx=0;exitDy=0;entryX=0;entryY=0;entryDx=0;entryDy=0;fontColor=#1A1A1A;elbow=vertical;" edge="1" parent="1" source="nk4efx7LylnVrbTF47Z--72" target="nk4efx7LylnVrbTF47Z--78">
          <mxGeometry relative="1" as="geometry" />
        </mxCell>
        <mxCell id="nk4efx7LylnVrbTF47Z--72" value="+" style="rhombus;whiteSpace=wrap;html=1;fontSize=25;" vertex="1" parent="1">
          <mxGeometry x="498" y="1820" width="80" height="80" as="geometry" />
        </mxCell>
        <mxCell id="nk4efx7LylnVrbTF47Z--73" style="edgeStyle=none;rounded=0;orthogonalLoop=1;jettySize=auto;html=1;exitX=0;exitY=1;exitDx=0;exitDy=0;entryX=1;entryY=0;entryDx=0;entryDy=0;fontColor=#1A1A1A;elbow=vertical;" edge="1" parent="1" source="nk4efx7LylnVrbTF47Z--75" target="nk4efx7LylnVrbTF47Z--76">
          <mxGeometry relative="1" as="geometry" />
        </mxCell>
        <mxCell id="nk4efx7LylnVrbTF47Z--74" style="edgeStyle=none;rounded=0;orthogonalLoop=1;jettySize=auto;html=1;exitX=1;exitY=1;exitDx=0;exitDy=0;entryX=0;entryY=0;entryDx=0;entryDy=0;fontColor=#1A1A1A;elbow=vertical;" edge="1" parent="1" source="nk4efx7LylnVrbTF47Z--75" target="nk4efx7LylnVrbTF47Z--77">
          <mxGeometry relative="1" as="geometry" />
        </mxCell>
        <mxCell id="nk4efx7LylnVrbTF47Z--75" value="*" style="rhombus;whiteSpace=wrap;html=1;fontSize=25;align=center;verticalAlign=middle;" vertex="1" parent="1">
          <mxGeometry x="438" y="1880" width="80" height="80" as="geometry" />
        </mxCell>
        <mxCell id="nk4efx7LylnVrbTF47Z--76" value="С1" style="rhombus;whiteSpace=wrap;html=1;" vertex="1" parent="1">
          <mxGeometry x="378" y="1940" width="80" height="80" as="geometry" />
        </mxCell>
        <mxCell id="nk4efx7LylnVrbTF47Z--77" value="100" style="rhombus;whiteSpace=wrap;html=1;" vertex="1" parent="1">
          <mxGeometry x="498" y="1940" width="80" height="80" as="geometry" />
        </mxCell>
        <mxCell id="nk4efx7LylnVrbTF47Z--78" value="C1&lt;br&gt;cashed_value = 30" style="rhombus;whiteSpace=wrap;html=1;" vertex="1" parent="1">
          <mxGeometry x="560" y="1880" width="150" height="150" as="geometry" />
        </mxCell>
        <mxCell id="nk4efx7LylnVrbTF47Z--79" value="" style="edgeStyle=none;rounded=0;orthogonalLoop=1;jettySize=auto;html=1;fontColor=#1A1A1A;elbow=vertical;exitX=1;exitY=1;exitDx=0;exitDy=0;" edge="1" parent="1" source="nk4efx7LylnVrbTF47Z--84" target="nk4efx7LylnVrbTF47Z--83">
          <mxGeometry relative="1" as="geometry" />
        </mxCell>
        <mxCell id="nk4efx7LylnVrbTF47Z--80" value="" style="edgeStyle=none;rounded=0;orthogonalLoop=1;jettySize=auto;html=1;fontColor=#1A1A1A;elbow=vertical;exitX=0;exitY=1;exitDx=0;exitDy=0;" edge="1" parent="1" source="nk4efx7LylnVrbTF47Z--84" target="nk4efx7LylnVrbTF47Z--82">
          <mxGeometry relative="1" as="geometry" />
        </mxCell>
        <mxCell id="nk4efx7LylnVrbTF47Z--81" value="" style="edgeStyle=none;rounded=0;orthogonalLoop=1;jettySize=auto;html=1;fontColor=#1A1A1A;elbow=vertical;exitX=0.5;exitY=1;exitDx=0;exitDy=0;" edge="1" parent="1" source="nk4efx7LylnVrbTF47Z--76" target="nk4efx7LylnVrbTF47Z--84">
          <mxGeometry relative="1" as="geometry">
            <mxPoint x="418" y="2120" as="sourcePoint" />
          </mxGeometry>
        </mxCell>
        <mxCell id="nk4efx7LylnVrbTF47Z--82" value="A1" style="rhombus;whiteSpace=wrap;html=1;" vertex="1" parent="1">
          <mxGeometry x="320" y="2110" width="80" height="80" as="geometry" />
        </mxCell>
        <mxCell id="nk4efx7LylnVrbTF47Z--83" value="B1" style="rhombus;whiteSpace=wrap;html=1;" vertex="1" parent="1">
          <mxGeometry x="438" y="2110" width="80" height="80" as="geometry" />
        </mxCell>
        <mxCell id="nk4efx7LylnVrbTF47Z--84" value="+" style="rhombus;whiteSpace=wrap;html=1;fontSize=25;verticalAlign=middle;" vertex="1" parent="1">
          <mxGeometry x="378" y="2050" width="80" height="80" as="geometry" />
        </mxCell>
        <mxCell id="nk4efx7LylnVrbTF47Z--85" value="" style="edgeStyle=orthogonalEdgeStyle;rounded=0;orthogonalLoop=1;jettySize=auto;html=1;" edge="1" parent="1" source="nk4efx7LylnVrbTF47Z--89" target="nk4efx7LylnVrbTF47Z--90">
          <mxGeometry relative="1" as="geometry" />
        </mxCell>
        <mxCell id="nk4efx7LylnVrbTF47Z--86" value="в ячейке текст" style="edgeLabel;html=1;align=center;verticalAlign=middle;resizable=0;points=[];fontSize=12;" vertex="1" connectable="0" parent="nk4efx7LylnVrbTF47Z--85">
          <mxGeometry x="0.15" y="1" relative="1" as="geometry">
            <mxPoint x="40" y="-1" as="offset" />
          </mxGeometry>
        </mxCell>
        <mxCell id="nk4efx7LylnVrbTF47Z--87" value="" style="edgeStyle=orthogonalEdgeStyle;rounded=0;orthogonalLoop=1;jettySize=auto;html=1;" edge="1" parent="1" source="nk4efx7LylnVrbTF47Z--89" target="nk4efx7LylnVrbTF47Z--92">
          <mxGeometry relative="1" as="geometry" />
        </mxCell>
        <mxCell id="nk4efx7LylnVrbTF47Z--88" value="в ячейке формула" style="edgeLabel;html=1;align=center;verticalAlign=middle;resizable=0;points=[];fontSize=12;" vertex="1" connectable="0" parent="nk4efx7LylnVrbTF47Z--87">
          <mxGeometry x="-0.4" relative="1" as="geometry">
            <mxPoint x="13" as="offset" />
          </mxGeometry>
        </mxCell>
        <mxCell id="nk4efx7LylnVrbTF47Z--89" value="e1-&amp;gt;GetValue()" style="shape=parallelogram;perimeter=parallelogramPerimeter;whiteSpace=wrap;html=1;fixedSize=1;" vertex="1" parent="1">
          <mxGeometry x="311" y="1200" width="120" height="60" as="geometry" />
        </mxCell>
        <mxCell id="nk4efx7LylnVrbTF47Z--90" value="вернуть текстовое содержание ячейки, обрезая ESCAPE-символ, если он есть" style="whiteSpace=wrap;html=1;" vertex="1" parent="1">
          <mxGeometry x="139" y="1280" width="142" height="80" as="geometry" />
        </mxCell>
        <mxCell id="nk4efx7LylnVrbTF47Z--91" value="" style="edgeStyle=none;rounded=0;orthogonalLoop=1;jettySize=auto;html=1;strokeColor=#000000;fontColor=#1A1A1A;elbow=vertical;" edge="1" parent="1" source="nk4efx7LylnVrbTF47Z--92" target="nk4efx7LylnVrbTF47Z--94">
          <mxGeometry relative="1" as="geometry" />
        </mxCell>
        <mxCell id="nk4efx7LylnVrbTF47Z--92" value="Value = variant&amp;lt;double, FormulaError&amp;gt;&lt;br&gt;Value result = formula_-&amp;gt;Evaluate(sheet_)" style="whiteSpace=wrap;html=1;" vertex="1" parent="1">
          <mxGeometry x="441" y="1280" width="240" height="80" as="geometry" />
        </mxCell>
        <mxCell id="nk4efx7LylnVrbTF47Z--93" value="" style="edgeStyle=none;rounded=0;orthogonalLoop=1;jettySize=auto;html=1;strokeColor=#000000;fontColor=#1A1A1A;elbow=vertical;entryX=0.5;entryY=0;entryDx=0;entryDy=0;" edge="1" parent="1" source="nk4efx7LylnVrbTF47Z--94" target="nk4efx7LylnVrbTF47Z--103">
          <mxGeometry relative="1" as="geometry">
            <mxPoint x="561" y="1490" as="targetPoint" />
          </mxGeometry>
        </mxCell>
        <mxCell id="nk4efx7LylnVrbTF47Z--94" value="ast_.Execute(sheet)" style="whiteSpace=wrap;html=1;" vertex="1" parent="1">
          <mxGeometry x="501" y="1394" width="120" height="60" as="geometry" />
        </mxCell>
        <mxCell id="nk4efx7LylnVrbTF47Z--95" style="edgeStyle=none;rounded=0;orthogonalLoop=1;jettySize=auto;html=1;exitX=1;exitY=1;exitDx=0;exitDy=0;strokeColor=#000000;fontColor=#1A1A1A;elbow=vertical;entryX=0.5;entryY=0;entryDx=0;entryDy=0;" edge="1" parent="1" source="nk4efx7LylnVrbTF47Z--103" target="nk4efx7LylnVrbTF47Z--106">
          <mxGeometry relative="1" as="geometry">
            <mxPoint x="531" y="1630" as="targetPoint" />
          </mxGeometry>
        </mxCell>
        <mxCell id="nk4efx7LylnVrbTF47Z--96" value="&lt;font style=&quot;font-size: 12px;&quot;&gt;операция бинарная?&lt;/font&gt;" style="edgeLabel;html=1;align=center;verticalAlign=middle;resizable=0;points=[];fontColor=#1A1A1A;" vertex="1" connectable="0" parent="nk4efx7LylnVrbTF47Z--95">
          <mxGeometry x="-0.1882" y="1" relative="1" as="geometry">
            <mxPoint x="15" y="7" as="offset" />
          </mxGeometry>
        </mxCell>
        <mxCell id="nk4efx7LylnVrbTF47Z--97" style="edgeStyle=none;rounded=0;orthogonalLoop=1;jettySize=auto;html=1;exitX=0;exitY=1;exitDx=0;exitDy=0;strokeColor=#000000;fontColor=#1A1A1A;elbow=vertical;entryX=0.5;entryY=0;entryDx=0;entryDy=0;" edge="1" parent="1" source="nk4efx7LylnVrbTF47Z--103" target="nk4efx7LylnVrbTF47Z--109">
          <mxGeometry relative="1" as="geometry">
            <mxPoint x="591" y="1640" as="targetPoint" />
          </mxGeometry>
        </mxCell>
        <mxCell id="nk4efx7LylnVrbTF47Z--98" value="операция унарная?" style="edgeLabel;html=1;align=center;verticalAlign=middle;resizable=0;points=[];fontColor=#1A1A1A;fontSize=12;" vertex="1" connectable="0" parent="nk4efx7LylnVrbTF47Z--97">
          <mxGeometry x="-0.0328" y="-1" relative="1" as="geometry">
            <mxPoint as="offset" />
          </mxGeometry>
        </mxCell>
        <mxCell id="nk4efx7LylnVrbTF47Z--99" style="edgeStyle=none;rounded=0;orthogonalLoop=1;jettySize=auto;html=1;exitX=0.5;exitY=1;exitDx=0;exitDy=0;strokeColor=#000000;fontColor=#1A1A1A;elbow=vertical;entryX=0.5;entryY=0;entryDx=0;entryDy=0;" edge="1" parent="1" source="nk4efx7LylnVrbTF47Z--103" target="nk4efx7LylnVrbTF47Z--111">
          <mxGeometry relative="1" as="geometry">
            <mxPoint x="641" y="1640" as="targetPoint" />
          </mxGeometry>
        </mxCell>
        <mxCell id="nk4efx7LylnVrbTF47Z--100" value="операнд число?" style="edgeLabel;html=1;align=center;verticalAlign=middle;resizable=0;points=[];fontColor=#1A1A1A;fontSize=12;" vertex="1" connectable="0" parent="nk4efx7LylnVrbTF47Z--99">
          <mxGeometry x="0.0012" y="3" relative="1" as="geometry">
            <mxPoint as="offset" />
          </mxGeometry>
        </mxCell>
        <mxCell id="nk4efx7LylnVrbTF47Z--101" style="edgeStyle=none;rounded=0;orthogonalLoop=1;jettySize=auto;html=1;exitX=0;exitY=0.25;exitDx=0;exitDy=0;strokeColor=#000000;fontColor=#1A1A1A;elbow=vertical;entryX=1;entryY=0.5;entryDx=0;entryDy=0;" edge="1" parent="1" source="nk4efx7LylnVrbTF47Z--103" target="nk4efx7LylnVrbTF47Z--113">
          <mxGeometry relative="1" as="geometry">
            <mxPoint x="691" y="1630" as="targetPoint" />
          </mxGeometry>
        </mxCell>
        <mxCell id="nk4efx7LylnVrbTF47Z--102" value="операнд ячейка?" style="edgeLabel;html=1;align=center;verticalAlign=middle;resizable=0;points=[];fontColor=#1A1A1A;fontSize=12;" vertex="1" connectable="0" parent="nk4efx7LylnVrbTF47Z--101">
          <mxGeometry x="0.3506" y="-1" relative="1" as="geometry">
            <mxPoint x="22" y="-3" as="offset" />
          </mxGeometry>
        </mxCell>
        <mxCell id="nk4efx7LylnVrbTF47Z--103" value="expr_-&amp;gt;Evaluate(sheet)" style="whiteSpace=wrap;html=1;" vertex="1" parent="1">
          <mxGeometry x="501" y="1480" width="170" height="60" as="geometry" />
        </mxCell>
        <mxCell id="nk4efx7LylnVrbTF47Z--104" style="edgeStyle=orthogonalEdgeStyle;rounded=0;orthogonalLoop=1;jettySize=auto;html=1;exitX=1;exitY=0;exitDx=0;exitDy=0;entryX=1;entryY=0.5;entryDx=0;entryDy=0;strokeColor=#000000;fontColor=#1A1A1A;elbow=vertical;curved=1;" edge="1" parent="1" source="nk4efx7LylnVrbTF47Z--106" target="nk4efx7LylnVrbTF47Z--103">
          <mxGeometry relative="1" as="geometry" />
        </mxCell>
        <mxCell id="nk4efx7LylnVrbTF47Z--105" value="Evaluate(sheet)&lt;br style=&quot;font-size: 12px;&quot;&gt;для двух операндов" style="edgeLabel;html=1;align=center;verticalAlign=middle;resizable=0;points=[];fontColor=#1A1A1A;fontSize=12;" vertex="1" connectable="0" parent="nk4efx7LylnVrbTF47Z--104">
          <mxGeometry x="0.4095" y="6" relative="1" as="geometry">
            <mxPoint x="36" y="14" as="offset" />
          </mxGeometry>
        </mxCell>
        <mxCell id="nk4efx7LylnVrbTF47Z--106" value="BinaryOpExpr : Expr" style="whiteSpace=wrap;html=1;" vertex="1" parent="1">
          <mxGeometry x="671" y="1600" width="120" height="60" as="geometry" />
        </mxCell>
        <mxCell id="nk4efx7LylnVrbTF47Z--107" style="edgeStyle=orthogonalEdgeStyle;rounded=0;orthogonalLoop=1;jettySize=auto;html=1;exitX=0;exitY=0.5;exitDx=0;exitDy=0;entryX=0;entryY=0.5;entryDx=0;entryDy=0;strokeColor=#000000;fontColor=#1A1A1A;elbow=vertical;curved=1;" edge="1" parent="1" source="nk4efx7LylnVrbTF47Z--109" target="nk4efx7LylnVrbTF47Z--103">
          <mxGeometry relative="1" as="geometry" />
        </mxCell>
        <mxCell id="nk4efx7LylnVrbTF47Z--108" value="Evaluate(sheet)&lt;br style=&quot;font-size: 12px;&quot;&gt;для одного операнда" style="edgeLabel;html=1;align=center;verticalAlign=middle;resizable=0;points=[];fontColor=#1A1A1A;fontSize=12;" vertex="1" connectable="0" parent="nk4efx7LylnVrbTF47Z--107">
          <mxGeometry x="-0.3071" y="-5" relative="1" as="geometry">
            <mxPoint x="-17" y="-3" as="offset" />
          </mxGeometry>
        </mxCell>
        <mxCell id="nk4efx7LylnVrbTF47Z--109" value="UnaryOpExpr : Expr" style="whiteSpace=wrap;html=1;" vertex="1" parent="1">
          <mxGeometry x="381" y="1600" width="120" height="60" as="geometry" />
        </mxCell>
        <mxCell id="nk4efx7LylnVrbTF47Z--110" style="edgeStyle=none;rounded=0;orthogonalLoop=1;jettySize=auto;html=1;exitX=0.5;exitY=1;exitDx=0;exitDy=0;entryX=0.5;entryY=0;entryDx=0;entryDy=0;strokeColor=#000000;fontColor=#1A1A1A;elbow=vertical;" edge="1" parent="1" source="nk4efx7LylnVrbTF47Z--111" target="nk4efx7LylnVrbTF47Z--114">
          <mxGeometry relative="1" as="geometry" />
        </mxCell>
        <mxCell id="nk4efx7LylnVrbTF47Z--111" value="NumberExpr : Expr" style="whiteSpace=wrap;html=1;" vertex="1" parent="1">
          <mxGeometry x="526" y="1600" width="120" height="60" as="geometry" />
        </mxCell>
        <mxCell id="nk4efx7LylnVrbTF47Z--112" style="edgeStyle=none;rounded=0;orthogonalLoop=1;jettySize=auto;html=1;exitX=0.25;exitY=0;exitDx=0;exitDy=0;entryX=0.5;entryY=1;entryDx=0;entryDy=0;strokeColor=#000000;fontColor=#1A1A1A;elbow=vertical;" edge="1" parent="1" source="nk4efx7LylnVrbTF47Z--113" target="nk4efx7LylnVrbTF47Z--89">
          <mxGeometry relative="1" as="geometry" />
        </mxCell>
        <mxCell id="nk4efx7LylnVrbTF47Z--119" value="так как ячейка&lt;br style=&quot;font-size: 12px;&quot;&gt;знает о таблице, можно&lt;br style=&quot;font-size: 12px;&quot;&gt;взять у ячейки GetValue" style="edgeLabel;html=1;align=center;verticalAlign=middle;resizable=0;points=[];fontSize=12;" vertex="1" connectable="0" parent="nk4efx7LylnVrbTF47Z--112">
          <mxGeometry x="-0.166" y="-5" relative="1" as="geometry">
            <mxPoint x="-9" y="35" as="offset" />
          </mxGeometry>
        </mxCell>
        <mxCell id="nk4efx7LylnVrbTF47Z--113" value="CellExpr : Expr" style="whiteSpace=wrap;html=1;" vertex="1" parent="1">
          <mxGeometry x="259.5" y="1454" width="120" height="60" as="geometry" />
        </mxCell>
        <mxCell id="nk4efx7LylnVrbTF47Z--114" value="Value" style="whiteSpace=wrap;html=1;" vertex="1" parent="1">
          <mxGeometry x="526" y="1700" width="120" height="60" as="geometry" />
        </mxCell>
        <mxCell id="nk4efx7LylnVrbTF47Z--115" value="Алгоритм вычисления формулы,&lt;br&gt;содержащей операнды: числа и индексы ячеек,&lt;br&gt;операции: +, -, *, /" style="text;html=1;align=center;verticalAlign=middle;resizable=0;points=[];autosize=1;strokeColor=none;fillColor=none;fontColor=#1A1A1A;fontSize=17;" vertex="1" parent="1">
          <mxGeometry x="240" y="1110" width="400" height="70" as="geometry" />
        </mxCell>
        <mxCell id="nk4efx7LylnVrbTF47Z--116" value="Формула в ячейке Е1" style="text;html=1;align=center;verticalAlign=middle;resizable=0;points=[];autosize=1;strokeColor=none;fillColor=none;fontColor=#1A1A1A;fontSize=17;" vertex="1" parent="1">
          <mxGeometry x="425" y="1790" width="190" height="30" as="geometry" />
        </mxCell>
        <mxCell id="nk4efx7LylnVrbTF47Z--118" style="edgeStyle=orthogonalEdgeStyle;rounded=0;orthogonalLoop=1;jettySize=auto;html=1;exitX=0;exitY=0;exitDx=0;exitDy=0;exitPerimeter=0;entryX=0;entryY=0;entryDx=0;entryDy=0;" edge="1" parent="1" source="nk4efx7LylnVrbTF47Z--117" target="nk4efx7LylnVrbTF47Z--89">
          <mxGeometry relative="1" as="geometry">
            <Array as="points">
              <mxPoint x="60" y="1209" />
            </Array>
          </mxGeometry>
        </mxCell>
        <mxCell id="nk4efx7LylnVrbTF47Z--134" style="edgeStyle=orthogonalEdgeStyle;rounded=0;orthogonalLoop=1;jettySize=auto;html=1;exitX=0;exitY=0;exitDx=300;exitDy=155;exitPerimeter=0;entryX=0.184;entryY=0;entryDx=0;entryDy=0;entryPerimeter=0;" edge="1" parent="1" source="nk4efx7LylnVrbTF47Z--117" target="nk4efx7LylnVrbTF47Z--116">
          <mxGeometry relative="1" as="geometry" />
        </mxCell>
        <mxCell id="nk4efx7LylnVrbTF47Z--117" value="main() {&lt;br style=&quot;border-color: var(--border-color);&quot;&gt;&amp;nbsp; &amp;nbsp; auto sheet = CreateSheet();&lt;br style=&quot;border-color: var(--border-color);&quot;&gt;&lt;br style=&quot;border-color: var(--border-color);&quot;&gt;&amp;nbsp; &amp;nbsp; sheet-&amp;gt;SetCell(&quot;A1&quot;_pos, &quot;15&quot;);&lt;br style=&quot;border-color: var(--border-color);&quot;&gt;&amp;nbsp; &amp;nbsp; sheet-&amp;gt;SetCell(&quot;B1&quot;_pos, &quot;15&quot;);&lt;br style=&quot;border-color: var(--border-color);&quot;&gt;&amp;nbsp; &amp;nbsp; sheet-&amp;gt;SetCell(&quot;C1&quot;_pos, &quot;=A1+B1&quot;);&lt;br style=&quot;border-color: var(--border-color);&quot;&gt;&amp;nbsp; &amp;nbsp; sheet-&amp;gt;SetCell(&quot;D1&quot;_pos, &quot;=C1&quot;);&lt;br style=&quot;border-color: var(--border-color);&quot;&gt;&lt;br style=&quot;border-color: var(--border-color);&quot;&gt;&amp;nbsp; &amp;nbsp; auto c1 = sheet-&amp;gt;GetCell(&quot;C1&quot;_pos);&lt;br style=&quot;border-color: var(--border-color);&quot;&gt;&amp;nbsp; &amp;nbsp; auto d1 = sheet-&amp;gt;GetCell(&quot;D1&quot;_pos);&lt;br style=&quot;border-color: var(--border-color);&quot;&gt;&amp;nbsp; &amp;nbsp; ASSERT_EQUAL(c1-&amp;gt;GetValue(), d1-&amp;gt;GetValue());&lt;br style=&quot;border-color: var(--border-color);&quot;&gt;&lt;br style=&quot;border-color: var(--border-color);&quot;&gt;&amp;nbsp; &amp;nbsp; sheet-&amp;gt;SetCell(&quot;E1&quot;_pos, &quot;=С1*100+C1&quot;);&lt;br&gt;&lt;br&gt;&amp;nbsp; &amp;nbsp; auto e1 = sheet-&amp;gt;GetCell(&quot;E1&quot;_pos);&lt;br style=&quot;border-color: var(--border-color);&quot;&gt;&lt;br style=&quot;border-color: var(--border-color);&quot;&gt;&amp;nbsp; &amp;nbsp; ASSERT_EQUAL(e1-&amp;gt;GetValue(), 3030);&lt;br style=&quot;border-color: var(--border-color);&quot;&gt;&amp;nbsp; &amp;nbsp; return 0;&lt;br style=&quot;border-color: var(--border-color);&quot;&gt;}" style="shape=note;size=20;whiteSpace=wrap;html=1;align=left;verticalAlign=top;" vertex="1" parent="1">
          <mxGeometry x="11" y="1580" width="300" height="290" as="geometry" />
        </mxCell>
      </root>
    </mxGraphModel>
  </diagram>
</mxfile>
